:SAMPLES-PER-SECOND 24
:FULLY-SPECIFIED
:DEGREES
212
root  -0.590292 40.4002 17.5879 23.7405 0.775284 17.0651
RightUpLeg  -16.3255 -6.75344 -10.2613
RightLeg  7.4668 -23.2401 -1.9907
RightFoot  -14.2668 -0.200849 -4.08508
RightToes  -1.74623e-010 0 -2.59999e-017
Spine  18.5185 4.10599 -3.348
Spine1  14.2278 9.81695 -17.7556
HEad  -10.3757 -9.42258 9.63657
LeftShoulder1  2.52794 -3.72124 -28.9399
LeftArm  4.65534 1.55937 -40.3142
LeftForeArm  125.079 -74.2157 -138.121
LeftHand  0.48777 11.5398 9.96548
RightShoulder  3.46535 6.01778 30.4941
RightArm  9.88993 14.3893 39.564
RightForeArm  4.33822 37.6308 8.37692
RightHand  -1.88366 4.94839 -21.2451
LeftUpLeg  -54.2425 -0.106302 -14.9464
LeftLeg  83.0179 -0.593481 -3.58973
LeftFoot  -10.1262 0.261868 -18.873
LeftToes  -6.27559e-011 -2.10356e-011 8.24929e-012
213
root  -0.00681946 39.9085 18.91 16.3846 -8.0132 11.6405
RightUpLeg  -9.80034 -5.35116 -7.55697
RightLeg  10.2979 -14.6395 -2.46755
RightFoot  -17.1272 -0.2118 -1.89943
RightToes  -1.74623e-010 0 -2.59999e-017
Spine  17.133 4.73356 -3.91225
Spine1  14.1959 10.5306 -17.9242
HEad  -6.40132 -10.958 11.0186
LeftShoulder1  2.49615 -3.68336 -28.6756
LeftArm  3.92181 4.86496 -38.1278
LeftForeArm  125.66 -74.2689 -138.079
LeftHand  0.422983 10.4393 10.5173
RightShoulder  3.41365 6.01519 29.951
RightArm  18.1296 15.9563 47.725
RightForeArm  5.22782 42.1314 9.79321
RightHand  -1.31945 4.26153 -16.0473
LeftUpLeg  -51.2669 -2.69282 -8.48607
LeftLeg  64.8092 -1.34726 -2.43117
LeftFoot  -10.3083 0.240883 -19.7401
LeftToes  -6.27559e-011 -2.10356e-011 8.24929e-012
214
root  0.571162 39.2749 20.4664 9.97156 -18.1695 8.74036
RightUpLeg  -4.34894 -1.61333 -7.89001
RightLeg  14.5895 -8.11074 -2.75433
RightFoot  -20.9073 -0.204927 -0.750621
RightToes  -1.74623e-010 0 -2.59999e-017
Spine  16.1108 5.37899 -5.29892
Spine1  13.6456 10.6741 -17.2527
HEad  -4.56369 -11.9527 10.9796
LeftShoulder1  2.45406 -3.60573 -28.4574
LeftArm  3.86701 7.15322 -36.1381
LeftForeArm  126.073 -74.513 -137.462
LeftHand  0.366562 10.2992 9.53555
RightShoulder  3.40244 5.95421 30.0664
RightArm  23.5483 13.5526 51.947
RightForeArm  9.68834 50.272 12.8416
RightHand  -0.731521 3.01418 -10.3224
LeftUpLeg  -45.2139 -8.32432 0.662124
LeftLeg  43.4731 0.796641 1.09154
LeftFoot  -11.6822 0.0251098 -16.3729
LeftToes  -6.27559e-011 -2.10356e-011 8.24929e-012
215
root  1.14652 38.4884 22.3708 5.21014 -29.2637 4.87476
RightUpLeg  1.11378 5.03592 -7.72038
RightLeg  17.4151 -3.64263 -1.53748
RightFoot  -24.2735 -0.0941408 0.617239
RightToes  -1.74623e-010 0 -2.59999e-017
Spine  13.8875 5.67717 -3.74638
Spine1  14.6996 10.8681 -16.0723
HEad  -5.40792 -14.3541 10.846
LeftShoulder1  2.43525 -3.5474 -28.476
LeftArm  3.10759 8.87053 -34.9072
LeftForeArm  126.166 -74.7136 -136.893
LeftHand  0.367848 10.5563 9.11194
RightShoulder  3.45601 5.96025 30.6185
RightArm  26.929 10.1912 52.2173
RightForeArm  15.9511 58.895 17.527
RightHand  -0.320126 2.16227 -5.09792
LeftUpLeg  -38.1248 -18.8909 14.8195
LeftLeg  24.6097 9.18389 4.3831
LeftFoot  -13.3613 -0.0567202 -8.17017
LeftToes  -6.27559e-011 -2.10356e-011 8.24929e-012
216
root  1.64072 37.5722 24.5102 4.55365 -41.3506 -0.172791
RightUpLeg  3.37789 10.2605 -7.82713
RightLeg  19.8858 2.84064 0.925183
RightFoot  -26.8793 0.202973 2.83198
RightToes  -1.74623e-010 0 -2.59999e-017
Spine  9.84414 5.4849 -1.232
Spine1  15.673 10.6197 -15.0435
HEad  -6.40304 -20.5388 11.249
LeftShoulder1  2.38856 -3.51937 -27.9343
LeftArm  2.20741 11.9215 -34.7853
LeftForeArm  126.583 -74.9619 -136.226
LeftHand  0.357542 9.9629 9.959
RightShoulder  3.4582 5.99303 30.5151
RightArm  28.911 6.84009 50.2367
RightForeArm  18.937 64.9379 23.0657
RightHand  -0.0985567 1.49556 -1.79774
LeftUpLeg  -30.6161 -15.9859 20.6632
LeftLeg  14.2854 3.87811 5.79439
LeftFoot  -14.5259 -0.0436514 -4.50206
LeftToes  -6.27559e-011 -2.10356e-011 8.24929e-012
217
root  2.12811 36.6612 26.5536 2.784 -53.1422 -0.396179
RightUpLeg  0.916263 16.0601 -12.5779
RightLeg  25.6736 7.90575 3.91106
RightFoot  -29.7946 0.700991 5.56017
RightToes  -1.74623e-010 0 -2.59999e-017
Spine  7.34318 5.07769 -5.59899
Spine1  14.4376 8.37262 -11.2926
HEad  -7.1368 -29.8953 12.2643
LeftShoulder1  2.35475 -3.56388 -27.2217
LeftArm  2.24886 15.384 -34.7491
LeftForeArm  125.491 -75.3491 -134.779
LeftHand  0.314989 9.09429 10.8106
RightShoulder  3.32098 5.85109 29.583
RightArm  29.2745 5.27793 46.878
RightForeArm  17.4641 67.2168 26.4175
RightHand  -0.0776375 1.51064 -1.44869
LeftUpLeg  -27.3901 -9.71014 21.523
LeftLeg  18.2818 0.862486 2.90152
LeftFoot  -12.6813 -0.0173363 -7.96079
LeftToes  -6.27559e-011 -2.10356e-011 8.24929e-012
218
root  2.83403 35.7712 28.5853 -1.70483 -59.7789 3.27704
RightUpLeg  -2.98075 19.3887 -18.7889
RightLeg  33.5301 7.57667 5.10934
RightFoot  -30.8125 1.41713 9.52097
RightToes  -1.74623e-010 0 -2.59999e-017
Spine  7.41368 3.08669 -13.5956
Spine1  13.269 3.04424 -3.18565
HEad  -10.2952 -39.3132 14.9832
LeftShoulder1  2.36725 -3.81047 -26.2412
LeftArm  3.24923 14.9026 -34.3218
LeftForeArm  117.415 -76.8034 -127.376
LeftHand  0.274363 8.81005 10.3361
RightShoulder  3.28079 5.72008 29.6541
RightArm  25.4958 7.89156 42.5423
RightForeArm  13.5239 65.2505 24.194
RightHand  -0.245074 1.66986 -4.17175
LeftUpLeg  -29.5329 -3.92983 18.0484
LeftLeg  30.2859 0.327518 0.414077
LeftFoot  -8.31113 0.376263 -12.5391
LeftToes  -6.27559e-011 -2.10356e-011 8.24929e-012
219
root  3.60697 35.0995 30.6202 -0.431824 -64.0406 0.916443
RightUpLeg  -6.99708 17.449 -20.6682
RightLeg  40.791 1.64331 1.18505
RightFoot  -26.059 1.45366 12.8083
RightToes  -1.74623e-010 0 -2.59999e-017
Spine  7.73483 0.724244 -15.9278
Spine1  14.6616 -1.79334 3.5432
HEad  -15.1116 -46.0741 19.0673
LeftShoulder1  2.32756 -4.19097 -24.0349
LeftArm  5.07727 9.71627 -33.9483
LeftForeArm  96.5881 -78.9945 -106.371
LeftHand  0.226951 8.60908 9.31071
RightShoulder  3.51208 5.88223 31.5271
RightArm  15.7423 12.8592 38.3537
RightForeArm  11.5781 59.6984 18.6602
RightHand  -0.573364 0.223224 -11.8875
LeftUpLeg  -33.113 -0.560758 16.3754
LeftLeg  41.5729 0.422968 0.832545
LeftFoot  -8.1704 0.446358 -14.4019
LeftToes  -6.27559e-011 -2.10356e-011 8.24929e-012
220
root  4.01201 35.0425 32.3008 3.52435 -72.9022 -4.66577
RightUpLeg  -11.9969 13.8471 -19.5666
RightLeg  46.3525 -7.55815 -8.78964
RightFoot  -17.9111 0.357445 8.27222
RightToes  -1.74623e-010 0 -2.59999e-017
Spine  6.75293 0.844452 -16.3381
Spine1  16.7178 -2.72888 6.52332
HEad  -16.7622 -49.5879 20.3527
LeftShoulder1  2.25905 -4.3484 -22.468
LeftArm  7.65545 4.85628 -32.4231
LeftForeArm  74.3701 -79.4179 -83.3417
LeftHand  0.245631 8.78361 9.48148
RightShoulder  3.8236 6.13077 33.801
RightArm  3.84342 14.7018 35.7913
RightForeArm  16.3293 54.1379 14.3042
RightHand  -0.497794 -3.00346 -24.101
LeftUpLeg  -30.6016 5.71236 16.4999
LeftLeg  46.6684 1.04509 1.64078
LeftFoot  -11.6769 0.0248937 -14.9465
LeftToes  -6.27559e-011 -2.10356e-011 8.24929e-012
221
root  3.99776 35.5667 33.672 1.81042 -83.1071 -4.89532
RightUpLeg  -14.9128 8.18505 -18.8499
RightLeg  48.0527 -16.8883 -19.3743
RightFoot  -11.0741 -0.0650264 -4.19055
RightToes  -1.74623e-010 0 -2.59999e-017
Spine  5.78574 1.90052 -18.8407
Spine1  16.899 -2.36973 8.59759
HEad  -15.1008 -50.5975 18.7441
LeftShoulder1  2.22037 -4.19889 -22.5283
LeftArm  9.45852 4.12954 -30.6681
LeftForeArm  71.4715 -79.3605 -79.5762
LeftHand  0.320759 9.61821 9.7342
RightShoulder  3.98503 6.23554 35.0214
RightArm  -4.28811 11.0032 34.4993
RightForeArm  21.9678 52.2301 12.7719
RightHand  0.136454 -5.82865 -34.0984
LeftUpLeg  -23.2607 14.3382 15.3574
LeftLeg  45.8176 1.80143 2.43798
LeftFoot  -13.3461 -0.184769 -15.0363
LeftToes  -6.27559e-011 -2.10356e-011 8.24929e-012
222
root  3.84734 36.5649 34.9076 19.305 -88.271 -23.3303
RightUpLeg  -14.8072 -2.40436 -18.4305
RightLeg  42.9365 -22.1164 -20.865
RightFoot  -3.26564 0.763068 -11.4682
RightToes  -1.74623e-010 0 -2.59999e-017
Spine  5.67035 0.806624 -18.9994
Spine1  15.3049 -3.60575 9.48739
HEad  -12.9989 -49.8823 16.8764
LeftShoulder1  2.18024 -4.02705 -22.6594
LeftArm  10.1061 5.75295 -31.3232
LeftForeArm  78.0787 -79.5066 -86.3562
LeftHand  0.385579 10.1348 10.2736
RightShoulder  3.93326 6.16078 34.8052
RightArm  -6.82927 4.18733 32.5789
RightForeArm  20.6445 52.2728 12.9043
RightHand  0.138512 -5.82871 -34.186
LeftUpLeg  -17.2336 18.5944 14.2644
LeftLeg  41.0297 3.0037 3.2143
LeftFoot  -12.7111 -0.0900645 -13.7747
LeftToes  -6.27559e-011 -2.10356e-011 8.24929e-012
223
root  3.6276 37.7754 35.9983 116.177 -87.8142 -120.404
RightUpLeg  -13.1328 -12.7197 -17.6787
RightLeg  32.8468 -14.9164 -10.5371
RightFoot  4.75767 1.05053 -7.48762
RightToes  -1.74623e-010 0 -2.59999e-017
Spine  5.93586 -0.995974 -15.6274
Spine1  13.2157 -4.95565 8.87937
HEad  -11.2358 -48.2889 14.7362
LeftShoulder1  2.14791 -3.91065 -22.6788
LeftArm  11.3502 5.80368 -34.3664
LeftForeArm  77.598 -79.4201 -88.1361
LeftHand  0.491435 10.2999 12.3341
RightShoulder  3.67893 5.88194 33.3145
RightArm  -6.09478 -3.35911 29.5453
RightForeArm  14.3108 51.3285 12.9492
RightHand  -0.281147 -4.10647 -24.6274
LeftUpLeg  -11.9254 18.7833 14.1863
LeftLeg  33.7731 5.5489 4.33667
LeftFoot  -11.3592 0.0649345 -12.1702
LeftToes  -6.27559e-011 -2.10356e-011 8.24929e-012
224
root  3.31586 38.7406 36.8256 149.595 -84.0044 -154.432
RightUpLeg  -11.8429 -15.5579 -17.5346
RightLeg  26.9618 1.22933 0.436707
RightFoot  6.37983 0.0916272 -0.235282
RightToes  -1.74623e-010 0 -2.59999e-017
Spine  6.38484 -1.39015 -12.832
Spine1  11.0035 -4.93627 8.41923
HEad  -10.0689 -46.4582 12.6723
LeftShoulder1  2.10941 -3.80447 -22.5659
LeftArm  13.2949 4.00771 -38.4192
LeftForeArm  74.1285 -79.3148 -86.7837
LeftHand  0.541576 10.3598 13.2902
RightShoulder  3.34921 5.51895 31.2299
RightArm  -3.20381 -10.1841 26.1716
RightForeArm  6.62149 47.8037 11.9027
RightHand  -0.395116 -2.56683 -15.9557
LeftUpLeg  -5.55384 19.5705 14.2883
LeftLeg  26.2667 8.4137 4.95517
LeftFoot  -9.40389 0.25649 -11.799
LeftToes  -6.27559e-011 -2.10356e-011 8.24929e-012
225
root  3.04529 39.2772 37.3863 161.677 -79.7737 -167.048
RightUpLeg  -11.9673 -12.4277 -17.7091
RightLeg  24.5456 8.18923 3.86003
RightFoot  1.06519 -0.100741 0.993289
RightToes  -1.74623e-010 0 -2.59999e-017
Spine  6.64059 -1.31673 -11.6168
Spine1  9.15669 -4.47484 7.72032
HEad  -10.0441 -44.2986 11.8278
LeftShoulder1  2.03749 -3.73245 -21.8158
LeftArm  14.4783 1.59218 -42.2524
LeftForeArm  75.9562 -79.2705 -89.9974
LeftHand  0.442667 10.0554 11.7734
RightShoulder  3.13186 5.34774 29.4663
RightArm  1.64952 -14.5526 23.2224
RightForeArm  -0.578409 41.4875 9.94182
RightHand  -0.435569 -1.6503 -13.3862
LeftUpLeg  -0.268754 19.1854 14.249
LeftLeg  20.9984 12.0075 4.00074
LeftFoot  -8.55624 0.355075 -12.465
LeftToes  -6.27559e-011 -2.10356e-011 8.24929e-012
226
root  2.85762 39.5192 37.8692 166.615 -76.526 -172.036
RightUpLeg  -11.9713 -9.17783 -18.2239
RightLeg  19.3588 1.75656 0.553159
RightFoot  -4.28172 0.106883 -2.15871
RightToes  -1.74623e-010 0 -2.59999e-017
Spine  6.31354 -1.83475 -10.6374
Spine1  8.56962 -4.62569 7.01498
HEad  -11.1048 -42.0286 11.9125
LeftShoulder1  1.94027 -3.58443 -20.9805
LeftArm  15.3861 -2.81564 -44.8942
LeftForeArm  76.513 -79.1344 -93.3201
LeftHand  0.377748 9.64383 11.1584
RightShoulder  3.03269 5.34084 28.3435
RightArm  6.83614 -16.1349 21.1518
RightForeArm  -6.65089 33.2055 7.66018
RightHand  -0.581521 -0.779157 -14.5868
LeftUpLeg  2.57671 15.4698 13.0399
LeftLeg  17.9001 17.9122 3.26182
LeftFoot  -8.89882 0.317179 -12.3413
LeftToes  -6.27559e-011 -2.10356e-011 8.24929e-012
